<svg xmlns="http://www.w3.org/2000/svg" xmlns:xlink="http://www.w3.org/1999/xlink" width="500" zoomAndPan="magnify" viewBox="0 0 375 374.999991" height="500" preserveAspectRatio="xMidYMid meet" version="1.0"><defs><clipPath id="0f9dd4af64"><path d="M 6.300781 6.300781 L 368.550781 6.300781 L 368.550781 368.550781 L 6.300781 368.550781 Z M 6.300781 6.300781 " clip-rule="nonzero"/></clipPath></defs><path fill="#ffffff" d="M 246.628906 114.519531 C 242.984375 87.019531 265.273438 48.1875 217.367188 42.492188 C 209.878906 41.601562 186.882812 42.34375 190.484375 54.71875 C 192.003906 59.929688 186.074219 65.070312 185.992188 71.449219 C 185.785156 86.8125 178.222656 89.234375 178.671875 96.988281 C 178.855469 100.230469 183.769531 98.15625 184.882812 99.398438 C 185.734375 100.34375 184.355469 101.511719 184.417969 104.460938 C 184.4375 105.351562 185.007812 107.195312 184.828125 108.527344 C 184.417969 111.523438 181.089844 114.667969 182.835938 115.90625 C 187.828125 119.445312 198.882812 114.492188 202.109375 125.121094 C 203.179688 128.652344 201.230469 131.179688 197.710938 136.050781 C 215.375 126.804688 218.328125 112.980469 218.328125 112.980469 C 216.5625 130.492188 192.457031 143.84375 192.457031 143.84375 C 211.785156 151.859375 217.59375 165.457031 217.59375 165.457031 C 210.109375 154.777344 197.164062 150.28125 189.378906 148.46875 L 189.304688 148.578125 C 181.050781 147.117188 168.164062 146.90625 155.535156 155.125 C 147.832031 160.140625 140.828125 167.175781 128.585938 167.125 C 128.585938 167.125 142.914062 164.847656 152.742188 154.066406 C 145.390625 151.597656 126.171875 142.214844 105.445312 161.101562 C 99.53125 173.105469 90.964844 173.894531 90.964844 173.894531 C 100.269531 170.464844 111.335938 147.191406 104.898438 116.308594 C 104.898438 116.308594 104.109375 112.011719 105.667969 108.730469 C 102.402344 111.09375 100.351562 114.320312 100.351562 114.320312 C 103.550781 105.039062 107.648438 105.214844 111.207031 105.101562 C 129.066406 104.507812 122.421875 105.800781 130.933594 94.371094 C 135.691406 87.980469 121.246094 80.386719 115.421875 78.832031 C 111.460938 77.773438 103.378906 86.085938 99.421875 89.46875 C 94.320312 93.828125 91.238281 105.296875 86.113281 115.882812 C 78.628906 131.34375 63.078125 161.035156 75.769531 183.867188 C 77.59375 187.148438 83.167969 186.210938 89.144531 190.699219 C 96.183594 195.992188 127.457031 202.644531 144.457031 193.710938 C 144.457031 193.710938 162.664062 193.683594 174.0625 181.050781 C 174.0625 181.050781 167.382812 192.929688 148.203125 196.121094 C 153.515625 200.410156 163.339844 207.5 174.835938 211.847656 C 167.3125 230.332031 183.847656 248.765625 185.019531 266.875 C 190.042969 259.164062 194.777344 248.242188 197.285156 232.921875 C 197.285156 232.921875 199.097656 252.949219 188.335938 274.753906 C 173.226562 305.367188 176.933594 336.207031 176.933594 336.207031 C 197 269.277344 280.988281 236.839844 287.386719 185.636719 C 292.109375 147.863281 249.617188 137.070312 246.628906 114.519531 " fill-opacity="1" fill-rule="nonzero"/><g clip-path="url(#0f9dd4af64)"><path fill="#ffffff" d="M 187.425781 345.4375 C 100.15625 345.4375 29.414062 274.691406 29.414062 187.425781 C 29.414062 100.15625 100.15625 29.414062 187.425781 29.414062 C 274.691406 29.414062 345.4375 100.15625 345.4375 187.425781 C 345.4375 274.691406 274.691406 345.4375 187.425781 345.4375 Z M 187.425781 6.289062 C 87.382812 6.289062 6.289062 87.386719 6.289062 187.425781 C 6.289062 287.460938 87.382812 368.5625 187.425781 368.5625 C 287.460938 368.5625 368.5625 287.460938 368.5625 187.425781 C 368.5625 87.386719 287.460938 6.289062 187.425781 6.289062 " fill-opacity="1" fill-rule="nonzero"/></g></svg>