<svg xmlns="http://www.w3.org/2000/svg" xmlns:xlink="http://www.w3.org/1999/xlink" width="160" zoomAndPan="magnify" viewBox="0 0 120 60" height="80" preserveAspectRatio="xMidYMid meet" version="1.0"><defs><g/><clipPath id="c34bc55a72"><path d="M 1.871094 12.597656 L 36.371094 12.597656 L 36.371094 47.097656 L 1.871094 47.097656 Z M 1.871094 12.597656 " clip-rule="nonzero"/></clipPath></defs><g fill="#fa9939" fill-opacity="1"><g transform="translate(45.718391, 32.022365)"><g><path d="M 3.5 0.125 C 2.488281 0.125 1.734375 -0.226562 1.234375 -0.9375 C 0.742188 -1.644531 0.5 -2.722656 0.5 -4.171875 L 0.5 -10.21875 C 0.5 -11.507812 0.785156 -12.484375 1.359375 -13.140625 C 1.941406 -13.804688 2.804688 -14.140625 3.953125 -14.140625 C 4.867188 -14.140625 5.582031 -13.953125 6.09375 -13.578125 C 6.613281 -13.210938 6.96875 -12.675781 7.15625 -11.96875 C 7.351562 -11.257812 7.453125 -10.351562 7.453125 -9.25 L 4.71875 -9.25 L 4.71875 -10.5 C 4.71875 -10.84375 4.671875 -11.101562 4.578125 -11.28125 C 4.484375 -11.46875 4.316406 -11.5625 4.078125 -11.5625 C 3.546875 -11.5625 3.28125 -11.210938 3.28125 -10.515625 L 3.28125 -3.734375 C 3.28125 -3.304688 3.332031 -2.984375 3.4375 -2.765625 C 3.550781 -2.554688 3.742188 -2.453125 4.015625 -2.453125 C 4.285156 -2.453125 4.472656 -2.554688 4.578125 -2.765625 C 4.691406 -2.984375 4.75 -3.304688 4.75 -3.734375 L 4.75 -5.734375 L 4 -5.734375 L 4 -8.15625 L 7.421875 -8.15625 L 7.421875 0 L 6.296875 0 L 5.828125 -1.171875 C 5.328125 -0.304688 4.550781 0.125 3.5 0.125 Z M 3.5 0.125 "/></g></g></g><g fill="#fa9939" fill-opacity="1"><g transform="translate(54.1189, 32.022365)"><g><path d="M 2.3125 0 L 2.3125 -4.609375 L 0.078125 -14.015625 L 2.859375 -14.015625 L 3.640625 -9.265625 L 4.421875 -14.015625 L 7.1875 -14.015625 L 4.953125 -4.609375 L 4.953125 0 Z M 2.3125 0 "/></g></g></g><g fill="#fa9939" fill-opacity="1"><g transform="translate(61.883254, 32.022365)"><g><path d="M 0.625 0 L 0.625 -14.015625 L 4.890625 -14.015625 L 6.0625 -5.46875 L 7.25 -14.015625 L 11.546875 -14.015625 L 11.546875 0 L 8.984375 0 L 8.984375 -10.09375 L 7.375 0 L 4.859375 0 L 3.140625 -10.09375 L 3.140625 0 Z M 0.625 0 "/></g></g></g><g fill="#001f3d" fill-opacity="1"><g transform="translate(46.709687, 43.339638)"><g><path d="M 1.875 0.0625 C 1.550781 0.0625 1.257812 0 1 -0.125 C 0.738281 -0.25 0.53125 -0.429688 0.375 -0.671875 C 0.226562 -0.910156 0.15625 -1.203125 0.15625 -1.546875 L 0.15625 -3.296875 L 1.53125 -3.296875 L 1.53125 -1.625 C 1.53125 -1.5 1.554688 -1.398438 1.609375 -1.328125 C 1.660156 -1.253906 1.738281 -1.21875 1.84375 -1.21875 C 1.945312 -1.21875 2.023438 -1.25 2.078125 -1.3125 C 2.128906 -1.382812 2.15625 -1.484375 2.15625 -1.609375 L 2.15625 -7 L 3.578125 -7 L 3.578125 -1.75 C 3.578125 -1.382812 3.503906 -1.066406 3.359375 -0.796875 C 3.210938 -0.523438 3.007812 -0.3125 2.75 -0.15625 C 2.488281 -0.0078125 2.195312 0.0625 1.875 0.0625 Z M 1.875 0.0625 "/></g></g></g><g fill="#001f3d" fill-opacity="1"><g transform="translate(51.504268, 43.339638)"><g><path d="M 0.125 0 L 0.796875 -7 L 3.171875 -7 L 3.84375 0 L 2.515625 0 L 2.421875 -1.140625 L 1.5625 -1.140625 L 1.484375 0 Z M 1.671875 -2.25 L 2.3125 -2.25 L 2 -5.8125 L 1.9375 -5.8125 Z M 1.671875 -2.25 "/></g></g></g><g fill="#001f3d" fill-opacity="1"><g transform="translate(56.453764, 43.339638)"><g><path d="M 1.9375 0.0625 C 1.351562 0.0625 0.921875 -0.0976562 0.640625 -0.421875 C 0.367188 -0.742188 0.234375 -1.226562 0.234375 -1.875 L 0.234375 -7 L 1.59375 -7 L 1.59375 -1.9375 C 1.59375 -1.707031 1.613281 -1.53125 1.65625 -1.40625 C 1.695312 -1.28125 1.789062 -1.21875 1.9375 -1.21875 C 2.070312 -1.21875 2.160156 -1.28125 2.203125 -1.40625 C 2.253906 -1.53125 2.28125 -1.707031 2.28125 -1.9375 L 2.28125 -7 L 3.640625 -7 L 3.640625 -1.875 C 3.640625 -1.226562 3.5 -0.742188 3.21875 -0.421875 C 2.9375 -0.0976562 2.507812 0.0625 1.9375 0.0625 Z M 1.9375 0.0625 "/></g></g></g><g fill="#001f3d" fill-opacity="1"><g transform="translate(61.313569, 43.339638)"><g><path d="M 0.3125 0 L 0.3125 -7 L 2.453125 -7 L 3.03125 -2.734375 L 3.625 -7 L 5.78125 -7 L 5.78125 0 L 4.5 0 L 4.5 -5.046875 L 3.6875 0 L 2.4375 0 L 1.578125 -5.046875 L 1.578125 0 Z M 0.3125 0 "/></g></g></g><g fill="#001f3d" fill-opacity="1"><g transform="translate(68.391093, 43.339638)"><g><path d="M 0.3125 0 L 0.3125 -7 L 3.109375 -7 L 3.109375 -5.65625 L 1.734375 -5.65625 L 1.734375 -4.296875 L 3.0625 -4.296875 L 3.0625 -2.96875 L 1.734375 -2.96875 L 1.734375 -1.359375 L 3.203125 -1.359375 L 3.203125 0 Z M 0.3125 0 "/></g></g></g><g fill="#001f3d" fill-opacity="1"><g transform="translate(72.745391, 43.339638)"><g/></g></g><g fill="#001f3d" fill-opacity="1"><g transform="translate(75.648387, 43.339638)"><g><path d="M 0.234375 -2.03125 L 0.234375 -2.953125 L 2.296875 -2.953125 L 2.296875 -2.03125 Z M 0.234375 -2.03125 "/></g></g></g><g fill="#001f3d" fill-opacity="1"><g transform="translate(79.179197, 43.339638)"><g/></g></g><g fill="#001f3d" fill-opacity="1"><g transform="translate(82.082192, 43.339638)"><g><path d="M 0.3125 0 L 0.3125 -7 L 3.109375 -7 L 3.109375 -5.65625 L 1.734375 -5.65625 L 1.734375 -4.296875 L 3.0625 -4.296875 L 3.0625 -2.96875 L 1.734375 -2.96875 L 1.734375 -1.359375 L 3.203125 -1.359375 L 3.203125 0 Z M 0.3125 0 "/></g></g></g><g fill="#001f3d" fill-opacity="1"><g transform="translate(86.43649, 43.339638)"><g><path d="M 0.3125 0 L 0.3125 -7 L 1.71875 -7 L 1.71875 -1.1875 L 3.15625 -1.1875 L 3.15625 0 Z M 0.3125 0 "/></g></g></g><g fill="#001f3d" fill-opacity="1"><g transform="translate(90.668487, 43.339638)"><g><path d="M 1.984375 0.0625 C 1.421875 0.0625 0.988281 -0.109375 0.6875 -0.453125 C 0.394531 -0.796875 0.25 -1.28125 0.25 -1.90625 L 0.25 -5.25 C 0.25 -5.851562 0.394531 -6.304688 0.6875 -6.609375 C 0.988281 -6.921875 1.421875 -7.078125 1.984375 -7.078125 C 2.546875 -7.078125 2.972656 -6.921875 3.265625 -6.609375 C 3.566406 -6.304688 3.71875 -5.851562 3.71875 -5.25 L 3.71875 -1.90625 C 3.71875 -1.28125 3.566406 -0.796875 3.265625 -0.453125 C 2.972656 -0.109375 2.546875 0.0625 1.984375 0.0625 Z M 1.984375 -1.21875 C 2.109375 -1.21875 2.191406 -1.269531 2.234375 -1.375 C 2.273438 -1.488281 2.296875 -1.644531 2.296875 -1.84375 L 2.296875 -5.265625 C 2.296875 -5.421875 2.273438 -5.546875 2.234375 -5.640625 C 2.191406 -5.734375 2.109375 -5.78125 1.984375 -5.78125 C 1.753906 -5.78125 1.640625 -5.601562 1.640625 -5.25 L 1.640625 -1.828125 C 1.640625 -1.628906 1.660156 -1.476562 1.703125 -1.375 C 1.753906 -1.269531 1.847656 -1.21875 1.984375 -1.21875 Z M 1.984375 -1.21875 "/></g></g></g><g fill="#001f3d" fill-opacity="1"><g transform="translate(95.626138, 43.339638)"><g><path d="M 1.15625 0 L 1.15625 -2.3125 L 0.046875 -7 L 1.421875 -7 L 1.8125 -4.625 L 2.203125 -7 L 3.59375 -7 L 2.484375 -2.3125 L 2.484375 0 Z M 1.15625 0 "/></g></g></g><g fill="#001f3d" fill-opacity="1"><g transform="translate(100.257651, 43.339638)"><g/></g></g><g fill="#001f3d" fill-opacity="1"><g transform="translate(103.160647, 43.339638)"><g><path d="M 1.421875 0.078125 C 1.003906 0.078125 0.6875 -0.0664062 0.46875 -0.359375 C 0.25 -0.660156 0.140625 -1.050781 0.140625 -1.53125 C 0.140625 -2.0625 0.210938 -2.488281 0.359375 -2.8125 C 0.515625 -3.132812 0.753906 -3.421875 1.078125 -3.671875 C 0.816406 -4.191406 0.6875 -4.644531 0.6875 -5.03125 C 0.6875 -5.425781 0.8125 -5.734375 1.0625 -5.953125 C 1.320312 -6.179688 1.660156 -6.296875 2.078125 -6.296875 C 2.472656 -6.296875 2.800781 -6.1875 3.0625 -5.96875 C 3.320312 -5.757812 3.453125 -5.460938 3.453125 -5.078125 C 3.453125 -4.503906 3.140625 -3.972656 2.515625 -3.484375 L 2.765625 -2.890625 C 2.921875 -3.285156 3.148438 -3.597656 3.453125 -3.828125 L 4 -2.953125 C 3.6875 -2.703125 3.425781 -2.289062 3.21875 -1.71875 L 3.9375 0 L 2.578125 0 L 2.4375 -0.390625 C 2.320312 -0.242188 2.175781 -0.128906 2 -0.046875 C 1.820312 0.0351562 1.628906 0.078125 1.421875 0.078125 Z M 2.21875 -4.5 C 2.269531 -4.550781 2.316406 -4.632812 2.359375 -4.75 C 2.410156 -4.863281 2.4375 -4.972656 2.4375 -5.078125 C 2.4375 -5.234375 2.351562 -5.3125 2.1875 -5.3125 C 2.125 -5.3125 2.070312 -5.285156 2.03125 -5.234375 C 2 -5.191406 1.984375 -5.140625 1.984375 -5.078125 C 1.984375 -4.929688 2.039062 -4.710938 2.15625 -4.421875 Z M 1.640625 -0.9375 C 1.742188 -0.9375 1.828125 -0.972656 1.890625 -1.046875 C 1.960938 -1.128906 2.015625 -1.222656 2.046875 -1.328125 L 1.5625 -2.484375 L 1.515625 -2.421875 C 1.460938 -2.347656 1.421875 -2.238281 1.390625 -2.09375 C 1.367188 -1.957031 1.359375 -1.820312 1.359375 -1.6875 L 1.359375 -1.640625 C 1.359375 -1.429688 1.375 -1.257812 1.40625 -1.125 C 1.4375 -1 1.515625 -0.9375 1.640625 -0.9375 Z M 1.640625 -0.9375 "/></g></g></g><g fill="#001f3d" fill-opacity="1"><g transform="translate(108.273208, 43.339638)"><g/></g></g><g fill="#001f3d" fill-opacity="1"><g transform="translate(111.176203, 43.339638)"><g><path d="M 1.9375 0.0625 C 1.425781 0.0625 1.015625 -0.09375 0.703125 -0.40625 C 0.398438 -0.726562 0.25 -1.171875 0.25 -1.734375 L 0.25 -4.96875 C 0.25 -5.664062 0.382812 -6.191406 0.65625 -6.546875 C 0.9375 -6.898438 1.375 -7.078125 1.96875 -7.078125 C 2.488281 -7.078125 2.90625 -6.929688 3.21875 -6.640625 C 3.53125 -6.359375 3.6875 -5.953125 3.6875 -5.421875 L 3.6875 -4.21875 L 2.296875 -4.21875 L 2.296875 -5.25 C 2.296875 -5.445312 2.269531 -5.582031 2.21875 -5.65625 C 2.175781 -5.738281 2.09375 -5.78125 1.96875 -5.78125 C 1.84375 -5.78125 1.753906 -5.734375 1.703125 -5.640625 C 1.660156 -5.554688 1.640625 -5.429688 1.640625 -5.265625 L 1.640625 -1.75 C 1.640625 -1.5625 1.664062 -1.425781 1.71875 -1.34375 C 1.78125 -1.257812 1.863281 -1.21875 1.96875 -1.21875 C 2.1875 -1.21875 2.296875 -1.394531 2.296875 -1.75 L 2.296875 -3.015625 L 3.71875 -3.015625 L 3.71875 -1.703125 C 3.71875 -0.523438 3.125 0.0625 1.9375 0.0625 Z M 1.9375 0.0625 "/></g></g></g><g fill="#001f3d" fill-opacity="1"><g transform="translate(116.03601, 43.339638)"><g><path d="M 1.984375 0.0625 C 1.421875 0.0625 0.988281 -0.109375 0.6875 -0.453125 C 0.394531 -0.796875 0.25 -1.28125 0.25 -1.90625 L 0.25 -5.25 C 0.25 -5.851562 0.394531 -6.304688 0.6875 -6.609375 C 0.988281 -6.921875 1.421875 -7.078125 1.984375 -7.078125 C 2.546875 -7.078125 2.972656 -6.921875 3.265625 -6.609375 C 3.566406 -6.304688 3.71875 -5.851562 3.71875 -5.25 L 3.71875 -1.90625 C 3.71875 -1.28125 3.566406 -0.796875 3.265625 -0.453125 C 2.972656 -0.109375 2.546875 0.0625 1.984375 0.0625 Z M 1.984375 -1.21875 C 2.109375 -1.21875 2.191406 -1.269531 2.234375 -1.375 C 2.273438 -1.488281 2.296875 -1.644531 2.296875 -1.84375 L 2.296875 -5.265625 C 2.296875 -5.421875 2.273438 -5.546875 2.234375 -5.640625 C 2.191406 -5.734375 2.109375 -5.78125 1.984375 -5.78125 C 1.753906 -5.78125 1.640625 -5.601562 1.640625 -5.25 L 1.640625 -1.828125 C 1.640625 -1.628906 1.660156 -1.476562 1.703125 -1.375 C 1.753906 -1.269531 1.847656 -1.21875 1.984375 -1.21875 Z M 1.984375 -1.21875 "/></g></g></g><path fill="#001f3d" d="M 24.757812 22.90625 C 24.414062 20.285156 26.535156 16.589844 21.972656 16.046875 C 21.257812 15.960938 19.070312 16.03125 19.414062 17.210938 C 19.558594 17.707031 18.992188 18.195312 18.984375 18.804688 C 18.964844 20.265625 18.246094 20.496094 18.289062 21.234375 C 18.304688 21.542969 18.773438 21.347656 18.878906 21.464844 C 18.960938 21.554688 18.828125 21.667969 18.835938 21.949219 C 18.835938 22.03125 18.890625 22.207031 18.875 22.335938 C 18.835938 22.621094 18.519531 22.917969 18.683594 23.039062 C 19.160156 23.375 20.210938 22.902344 20.519531 23.914062 C 20.621094 24.25 20.4375 24.492188 20.101562 24.957031 C 21.78125 24.074219 22.0625 22.757812 22.0625 22.757812 C 21.894531 24.425781 19.601562 25.699219 19.601562 25.699219 C 21.441406 26.460938 21.996094 27.757812 21.996094 27.757812 C 21.28125 26.738281 20.050781 26.3125 19.308594 26.140625 L 19.300781 26.148438 C 18.515625 26.011719 17.285156 25.988281 16.082031 26.773438 C 15.351562 27.25 14.683594 27.921875 13.515625 27.914062 C 13.515625 27.914062 14.882812 27.699219 15.816406 26.671875 C 15.117188 26.4375 13.289062 25.542969 11.3125 27.34375 C 10.75 28.484375 9.933594 28.558594 9.933594 28.558594 C 10.820312 28.234375 11.875 26.015625 11.261719 23.074219 C 11.261719 23.074219 11.1875 22.667969 11.335938 22.355469 C 11.023438 22.578125 10.828125 22.886719 10.828125 22.886719 C 11.132812 22.003906 11.523438 22.019531 11.863281 22.007812 C 13.5625 21.953125 12.929688 22.074219 13.742188 20.988281 C 14.195312 20.378906 12.820312 19.65625 12.265625 19.507812 C 11.886719 19.40625 11.117188 20.199219 10.738281 20.519531 C 10.253906 20.933594 9.960938 22.027344 9.472656 23.035156 C 8.761719 24.507812 7.277344 27.335938 8.488281 29.511719 C 8.660156 29.824219 9.191406 29.734375 9.761719 30.160156 C 10.429688 30.664062 13.410156 31.296875 15.027344 30.449219 C 15.027344 30.449219 16.761719 30.445312 17.847656 29.242188 C 17.847656 29.242188 17.210938 30.371094 15.386719 30.675781 C 15.890625 31.085938 16.828125 31.761719 17.921875 32.175781 C 17.207031 33.933594 18.78125 35.691406 18.890625 37.414062 C 19.371094 36.679688 19.820312 35.640625 20.058594 34.183594 C 20.058594 34.183594 20.234375 36.089844 19.207031 38.164062 C 17.769531 41.082031 18.121094 44.019531 18.121094 44.019531 C 20.03125 37.644531 28.03125 34.554688 28.640625 29.679688 C 29.089844 26.082031 25.042969 25.054688 24.757812 22.90625 " fill-opacity="1" fill-rule="nonzero"/><g clip-path="url(#c34bc55a72)"><path fill="#001f3d" d="M 19.121094 44.898438 C 10.808594 44.898438 4.074219 38.160156 4.074219 29.847656 C 4.074219 21.539062 10.808594 14.800781 19.121094 14.800781 C 27.433594 14.800781 34.167969 21.539062 34.167969 29.847656 C 34.167969 38.160156 27.433594 44.898438 19.121094 44.898438 Z M 19.121094 12.597656 C 9.59375 12.597656 1.871094 20.320312 1.871094 29.847656 C 1.871094 39.375 9.59375 47.101562 19.121094 47.101562 C 28.648438 47.101562 36.371094 39.375 36.371094 29.847656 C 36.371094 20.320312 28.648438 12.597656 19.121094 12.597656 " fill-opacity="1" fill-rule="nonzero"/></g></svg>